<?xml version="1.0" encoding="utf-8"?>
<!-- Generator: Adobe Illustrator 21.0.0, SVG Export Plug-In . SVG Version: 6.00 Build 0)  -->
<svg version="1.1"
	 id="Layer_1" inkscape:version="0.91 r13725" sodipodi:docname="buttons.svg" xmlns:cc="http://creativecommons.org/ns#" xmlns:dc="http://purl.org/dc/elements/1.1/" xmlns:inkscape="http://www.inkscape.org/namespaces/inkscape" xmlns:rdf="http://www.w3.org/1999/02/22-rdf-syntax-ns#" xmlns:sodipodi="http://sodipodi.sourceforge.net/DTD/sodipodi-0.dtd" xmlns:svg="http://www.w3.org/2000/svg"
	 xmlns="http://www.w3.org/2000/svg" xmlns:xlink="http://www.w3.org/1999/xlink" x="0px" y="0px" viewBox="0 0 198 99"
	 style="enable-background:new 0 0 198 99;" xml:space="preserve">
<style type="text/css">
	.st0{fill:#FFCC00;}
	.st1{fill:none;stroke:#655100;stroke-width:2.3049;stroke-miterlimit:10;}
	.st2{fill:#FFFFFF;}
	.st3{fill:none;stroke:#006468;stroke-width:2.3049;stroke-miterlimit:10;}
	.st4{fill:#655100;}
	.st5{fill:#006468;}
	.st6{fill:none;stroke:#655100;stroke-width:1.9544;stroke-miterlimit:10;}
	.st7{fill:none;stroke:#006468;stroke-width:1.9544;stroke-miterlimit:10;}
</style>
<sodipodi:namedview  bordercolor="#666666" borderopacity="1" gridtolerance="10" guidetolerance="10" id="namedview323" inkscape:current-layer="Layer_1" inkscape:cx="45.252385" inkscape:cy="36.224987" inkscape:guide-bbox="true" inkscape:pageopacity="0" inkscape:pageshadow="2" inkscape:window-height="1000" inkscape:window-maximized="1" inkscape:window-width="1215" inkscape:window-x="65" inkscape:window-y="24" inkscape:zoom="4" objecttolerance="10" pagecolor="#ffffff" showgrid="false" showguides="true">
	</sodipodi:namedview>
<g id="g5" transform="translate(-0.12000084,0)">
	<circle id="circle7" class="st0" cx="16.6" cy="16.6" r="12"/>
	<polyline id="polyline9" class="st1" points="21.5,12.7 15.8,20.6 11.8,16.7 	"/>
</g>
<g id="g11" transform="translate(-0.12000084,0)">
	<circle id="circle13" class="st2" cx="16.6" cy="49.5" r="12"/>
	<polyline id="polyline15" class="st3" points="21.5,45.6 15.8,53.4 11.8,49.5 	"/>
</g>
<g id="g17" transform="translate(-0.12000084,0)">
	<circle id="circle19" class="st0" cx="16.6" cy="82.5" r="12"/>
	<polyline id="polyline21" class="st3" points="21.5,78.6 15.8,86.4 11.8,82.5 	"/>
</g>
<g id="g23" transform="translate(-0.26100159,0)">
	<circle id="circle25" class="st0" cx="49.8" cy="16.6" r="12"/>
	<polygon id="polygon27" class="st4" points="45.4,15.3 49.3,15.3 49.3,11.5 54.7,16.9 49.3,22.2 49.3,18.6 45.4,18.5 	"/>
</g>
<g id="g29" transform="translate(-0.26100159,0)">
	<circle id="circle31" class="st2" cx="49.8" cy="49.5" r="12"/>
	<polygon id="polygon33" class="st5" points="45.4,48.2 49.3,48.2 49.3,44.4 54.7,49.7 49.3,55.1 49.3,51.4 45.4,51.4 	"/>
</g>
<g id="g35" transform="translate(-0.26100159,0)">
	<circle id="circle37" class="st0" cx="49.8" cy="82.5" r="12"/>
	<polygon id="polygon39" class="st5" points="45.4,81.2 49.3,81.2 49.3,77.4 54.7,82.7 49.3,88.1 49.3,84.4 45.4,84.4 	"/>
</g>
<g id="g41" transform="translate(-0.54399872,0)">
	<rect id="rect43" x="105.5" y="6.1" class="st0" width="21" height="21"/>
	<polygon id="polygon45" class="st4" points="114.4,19.1 114.4,15.1 110.6,15.1 116,9.6 121.5,15.1 117.8,15.1 117.7,19.1 	"/>
	<rect id="rect47" x="110.5" y="22.2" class="st4" width="1" height="1"/>
	<rect id="rect49" x="112.5" y="22.2" class="st4" width="1" height="1"/>
	<rect id="rect51" x="114.5" y="22.2" class="st4" width="1" height="1"/>
	<rect id="rect53" x="116.5" y="22.2" class="st4" width="1" height="1"/>
	<rect id="rect55" x="118.5" y="22.2" class="st4" width="1" height="1"/>
	<rect id="rect57" x="120.5" y="22.2" class="st4" width="1" height="1"/>
</g>
<g id="g59" transform="translate(-0.68600464,0)">
	<rect id="rect61" x="138.7" y="6.1" class="st0" width="21" height="21"/>
	<polygon id="polygon63" class="st4" points="150.8,9.6 150.8,13.6 154.6,13.6 149.2,19.1 143.7,13.6 147.5,13.6 147.5,9.6 	"/>
	<rect id="rect65" x="143.7" y="22.2" class="st4" width="1" height="1"/>
	<rect id="rect67" x="145.7" y="22.2" class="st4" width="1" height="1"/>
	<rect id="rect69" x="147.7" y="22.2" class="st4" width="1" height="1"/>
	<rect id="rect71" x="149.7" y="22.2" class="st4" width="1" height="1"/>
	<rect id="rect73" x="151.7" y="22.2" class="st4" width="1" height="1"/>
	<rect id="rect75" x="153.7" y="22.2" class="st4" width="1" height="1"/>
</g>
<g id="g77" transform="translate(-0.54399872,0)">
	<rect id="rect79" x="105.5" y="39" class="st2" width="21" height="21"/>
	<polygon id="polygon81" class="st5" points="114.4,51.9 114.4,48 110.6,48 116,42.5 121.5,47.9 117.8,47.9 117.7,51.9 	"/>
	<rect id="rect83" x="110.5" y="55" class="st5" width="1" height="1"/>
	<rect id="rect85" x="112.5" y="55" class="st5" width="1" height="1"/>
	<rect id="rect87" x="114.5" y="55" class="st5" width="1" height="1"/>
	<rect id="rect89" x="116.5" y="55" class="st5" width="1" height="1"/>
	<rect id="rect91" x="118.5" y="55" class="st5" width="1" height="1"/>
	<rect id="rect93" x="120.5" y="55" class="st5" width="1" height="1"/>
</g>
<g id="g95" transform="translate(-0.68600464,0)">
	<rect id="rect97" x="138.7" y="39" class="st2" width="21" height="21"/>
	<polygon id="polygon99" class="st5" points="150.8,42.5 150.8,46.4 154.6,46.4 149.2,51.9 143.7,46.5 147.5,46.5 147.5,42.5 	"/>
	<rect id="rect101" x="143.7" y="55" class="st5" width="1" height="1"/>
	<rect id="rect103" x="145.7" y="55" class="st5" width="1" height="1"/>
	<rect id="rect105" x="147.7" y="55" class="st5" width="1" height="1"/>
	<rect id="rect107" x="149.7" y="55" class="st5" width="1" height="1"/>
	<rect id="rect109" x="151.7" y="55" class="st5" width="1" height="1"/>
	<rect id="rect111" x="153.7" y="55" class="st5" width="1" height="1"/>
</g>
<g id="g113" transform="translate(-0.54399872,0)">
	<rect id="rect115" x="105.5" y="72" class="st0" width="21" height="21"/>
	<polygon id="polygon117" class="st5" points="114.4,84.9 114.4,81 110.6,81 116,75.5 121.5,81 117.8,81 117.7,84.9 	"/>
	<rect id="rect119" x="110.5" y="88.1" class="st5" width="1" height="1"/>
	<rect id="rect121" x="112.5" y="88.1" class="st5" width="1" height="1"/>
	<rect id="rect123" x="114.5" y="88.1" class="st5" width="1" height="1"/>
	<rect id="rect125" x="116.5" y="88.1" class="st5" width="1" height="1"/>
	<rect id="rect127" x="118.5" y="88.1" class="st5" width="1" height="1"/>
	<rect id="rect129" x="120.5" y="88.1" class="st5" width="1" height="1"/>
</g>
<g id="g131" transform="translate(-0.68600464,0)">
	<rect id="rect133" x="138.7" y="72" class="st0" width="21" height="21"/>
	<polygon id="polygon135" class="st5" points="150.8,75.5 150.8,79.5 154.6,79.5 149.2,84.9 143.7,79.5 147.5,79.5 147.5,75.5 	"/>
	<rect id="rect137" x="143.7" y="88.1" class="st5" width="1" height="1"/>
	<rect id="rect139" x="145.7" y="88.1" class="st5" width="1" height="1"/>
	<rect id="rect141" x="147.7" y="88.1" class="st5" width="1" height="1"/>
	<rect id="rect143" x="149.7" y="88.1" class="st5" width="1" height="1"/>
	<rect id="rect145" x="151.7" y="88.1" class="st5" width="1" height="1"/>
	<rect id="rect147" x="153.7" y="88.1" class="st5" width="1" height="1"/>
</g>
<g id="g149" transform="translate(-0.40299988,0)">
	<path id="path151" inkscape:connector-curvature="0" class="st4" d="M87.4,22.1"/>
	<rect id="rect153" x="72.4" y="6.1" class="st0" width="21" height="21"/>
	<polygon id="polygon155" class="st4" points="83.4,10.1 84.4,10.1 88.4,14.1 88.4,15.1 87.4,15.1 83.4,15.1 	"/>
	<polygon id="polygon157" class="st4" points="78.4,11.1 78.4,22.1 87.4,22.1 87.4,14.9 88.4,14.9 88.4,23.1 77.4,23.1 77.4,10.1 
		83.6,10.1 83.6,11.1 	"/>
	<rect id="rect159" x="79.4" y="12.1" class="st4" width="1" height="1"/>
	<rect id="rect161" x="81.4" y="12.1" class="st4" width="1" height="1"/>
	<rect id="rect163" x="79.4" y="14.1" class="st4" width="1" height="1"/>
	<rect id="rect165" x="81.4" y="14.1" class="st4" width="1" height="1"/>
	<rect id="rect167" x="79.4" y="16.1" class="st4" width="1" height="1"/>
	<rect id="rect169" x="81.4" y="16.1" class="st4" width="1" height="1"/>
	<rect id="rect171" x="83.4" y="16.1" class="st4" width="1" height="1"/>
	<rect id="rect173" x="85.4" y="16.1" class="st4" width="1" height="1"/>
	<rect id="rect175" x="79.4" y="18.1" class="st4" width="1" height="1"/>
	<rect id="rect177" x="81.4" y="18.1" class="st4" width="1" height="1"/>
	<rect id="rect179" x="79.4" y="20.1" class="st4" width="1" height="1"/>
	<rect id="rect181" x="81.4" y="20.1" class="st4" width="1" height="1"/>
	<rect id="rect183" x="83.4" y="18.1" class="st4" width="1" height="1"/>
	<rect id="rect185" x="85.4" y="18.1" class="st4" width="1" height="1"/>
	<rect id="rect187" x="83.4" y="20.1" class="st4" width="1" height="1"/>
	<rect id="rect189" x="85.4" y="20.1" class="st4" width="1" height="1"/>
</g>
<g id="g191" transform="translate(-0.40299988,0)">
	<path id="path193" inkscape:connector-curvature="0" class="st5" d="M87.4,55"/>
	<rect id="rect195" x="72.4" y="39" class="st2" width="21" height="21"/>
	<polygon id="polygon197" class="st5" points="83.4,43 84.4,43 88.4,46.9 88.4,47.9 87.4,47.9 83.4,47.9 	"/>
	<polygon id="polygon199" class="st5" points="78.4,43.9 78.4,55 87.4,55 87.4,47.7 88.4,47.7 88.4,56 77.4,56 77.4,43 83.6,43 
		83.6,44 	"/>
	<rect id="rect201" x="79.4" y="45" class="st5" width="1" height="1"/>
	<rect id="rect203" x="81.4" y="45" class="st5" width="1" height="1"/>
	<rect id="rect205" x="79.4" y="47" class="st5" width="1" height="1"/>
	<rect id="rect207" x="81.4" y="47" class="st5" width="1" height="1"/>
	<rect id="rect209" x="79.4" y="49" class="st5" width="1" height="1"/>
	<rect id="rect211" x="81.4" y="49" class="st5" width="1" height="1"/>
	<rect id="rect213" x="83.4" y="49" class="st5" width="1" height="1"/>
	<rect id="rect215" x="85.4" y="49" class="st5" width="1" height="1"/>
	<rect id="rect217" x="79.4" y="51" class="st5" width="1" height="1"/>
	<rect id="rect219" x="81.4" y="51" class="st5" width="1" height="1"/>
	<rect id="rect221" x="79.4" y="53" class="st5" width="1" height="1"/>
	<rect id="rect223" x="81.4" y="53" class="st5" width="1" height="1"/>
	<rect id="rect225" x="83.4" y="51" class="st5" width="1" height="1"/>
	<rect id="rect227" x="85.4" y="51" class="st5" width="1" height="1"/>
	<rect id="rect229" x="83.4" y="53" class="st5" width="1" height="1"/>
	<rect id="rect231" x="85.4" y="53" class="st5" width="1" height="1"/>
</g>
<g id="g233" transform="translate(-0.40299988,0)">
	<path id="path235" inkscape:connector-curvature="0" class="st5" d="M87.4,88"/>
	<rect id="rect237" x="72.4" y="72" class="st0" width="21" height="21"/>
	<polygon id="polygon239" class="st5" points="83.4,76 84.4,76 88.4,79.9 88.4,80.9 87.4,80.9 83.4,80.9 	"/>
	<polygon id="polygon241" class="st5" points="78.4,77 78.4,88 87.4,88 87.4,80.7 88.4,80.7 88.4,89 77.4,89 77.4,76 83.6,76 
		83.6,77 	"/>
	<rect id="rect243" x="79.4" y="78" class="st5" width="1" height="1"/>
	<rect id="rect245" x="81.4" y="78" class="st5" width="1" height="1"/>
	<rect id="rect247" x="79.4" y="80" class="st5" width="1" height="1"/>
	<rect id="rect249" x="81.4" y="80" class="st5" width="1" height="1"/>
	<rect id="rect251" x="79.4" y="82" class="st5" width="1" height="1"/>
	<rect id="rect253" x="81.4" y="82" class="st5" width="1" height="1"/>
	<rect id="rect255" x="83.4" y="82" class="st5" width="1" height="1"/>
	<rect id="rect257" x="85.4" y="82" class="st5" width="1" height="1"/>
	<rect id="rect259" x="79.4" y="84" class="st5" width="1" height="1"/>
	<rect id="rect261" x="81.4" y="84" class="st5" width="1" height="1"/>
	<rect id="rect263" x="79.4" y="86" class="st5" width="1" height="1"/>
	<rect id="rect265" x="81.4" y="86" class="st5" width="1" height="1"/>
	<rect id="rect267" x="83.4" y="84" class="st5" width="1" height="1"/>
	<rect id="rect269" x="85.4" y="84" class="st5" width="1" height="1"/>
	<rect id="rect271" x="83.4" y="86" class="st5" width="1" height="1"/>
	<rect id="rect273" x="85.4" y="86" class="st5" width="1" height="1"/>
</g>
<g id="g275" transform="translate(-0.82800293,0)">
	<rect id="rect277" x="171.8" y="6.1" class="st0" width="21" height="21"/>
	<rect id="rect279" x="187.8" y="16.1" class="st4" width="1" height="1"/>
	<rect id="rect281" x="189.8" y="16.1" class="st4" width="1" height="1"/>
	<rect id="rect283" x="174.8" y="16.1" class="st4" width="1" height="1"/>
	<circle id="circle285" class="st6" cx="181.8" cy="16.1" r="4.1"/>
	
		<rect id="rect287" x="175" y="19.3" transform="matrix(0.7224 -0.6915 0.6915 0.7224 34.9244 128.2848)" class="st4" width="4.4" height="2.7"/>
	<rect id="rect289" x="180.8" y="15.1" class="st4" width="2" height="2"/>
</g>
<g id="g291" transform="translate(-0.82800293,0)">
	<rect id="rect293" x="171.8" y="39" class="st2" width="21" height="21"/>
	<rect id="rect295" x="187.8" y="49" class="st5" width="1" height="1"/>
	<rect id="rect297" x="189.8" y="49" class="st5" width="1" height="1"/>
	<rect id="rect299" x="174.8" y="49" class="st5" width="1" height="1"/>
	<circle id="circle301" class="st7" cx="181.8" cy="49" r="4.1"/>
	
		<rect id="rect303" x="175" y="52.2" transform="matrix(0.7224 -0.6915 0.6915 0.7224 12.2049 137.4047)" class="st5" width="4.4" height="2.7"/>
	<rect id="rect305" x="180.8" y="48" class="st5" width="2" height="2"/>
</g>
<g id="g307" transform="translate(-0.82800293,0)">
	<rect id="rect309" x="171.8" y="72" class="st0" width="21" height="21"/>
	<rect id="rect311" x="187.8" y="82" class="st5" width="1" height="1"/>
	<rect id="rect313" x="189.8" y="82" class="st5" width="1" height="1"/>
	<rect id="rect315" x="174.8" y="82" class="st5" width="1" height="1"/>
	<circle id="circle317" class="st7" cx="181.8" cy="82" r="4.1"/>
	
		<rect id="rect319" x="175" y="85.2" transform="matrix(0.7224 -0.6915 0.6915 0.7224 -10.6224 146.5679)" class="st5" width="4.4" height="2.7"/>
	<rect id="rect321" x="180.8" y="81" class="st5" width="2" height="2"/>
</g>
</svg>
